<svg xmlns="http://www.w3.org/2000/svg" xmlns:xlink="http://www.w3.org/1999/xlink" width="500" zoomAndPan="magnify" viewBox="0 0 375 374.999991" height="500" preserveAspectRatio="xMidYMid meet" version="1.0"><defs><clipPath id="bae68622d8"><path d="M 61.414062 97.414062 L 304 97.414062 L 304 266.914062 L 61.414062 266.914062 Z M 61.414062 97.414062 " clip-rule="nonzero"/></clipPath></defs><path fill="#ffffff" d="M 187.5 0 C 83.90625 0 0 83.90625 0 187.5 C 0 291.09375 83.90625 375 187.5 375 C 291.09375 375 375 291.09375 375 187.5 C 375 83.90625 291.09375 0 187.5 0 Z M 187.5 337.5 C 104.625 337.5 37.5 270.375 37.5 187.5 C 37.5 104.625 104.625 37.5 187.5 37.5 C 270.375 37.5 337.5 104.625 337.5 187.5 C 337.5 270.375 270.375 337.5 187.5 337.5 Z M 187.5 337.5 " fill-opacity="1" fill-rule="nonzero"/><g clip-path="url(#bae68622d8)"><path fill="#ffffff" d="M 144.074219 213.269531 L 153.761719 235.890625 L 156.039062 242.042969 L 101.839844 242.042969 L 90.410156 266.644531 L 61.640625 266.644531 L 126.058594 128.363281 L 140.34375 97.414062 L 154.777344 128.363281 L 205.636719 237.777344 L 303.8125 237.777344 L 288.265625 266.644531 L 191.054688 266.644531 L 179.042969 242.332031 L 176.960938 237.875 L 165.773438 213.804688 L 166.0625 213.320312 L 165.578125 213.320312 L 140.394531 159.21875 L 115.207031 213.320312 L 144.074219 213.320312 Z M 166.015625 213.269531 L 165.53125 213.269531 L 165.773438 213.753906 Z M 288.265625 126.136719 L 303.8125 97.414062 L 191.054688 97.414062 L 191.054688 157.183594 L 206.992188 191.574219 L 253.199219 191.574219 L 268.746094 162.851562 L 219.875 162.851562 L 219.875 126.136719 Z M 166.015625 213.269531 L 165.53125 213.269531 L 165.773438 213.753906 Z M 166.015625 213.269531 " fill-opacity="1" fill-rule="nonzero"/></g></svg>